<svg xmlns="http://www.w3.org/2000/svg" version="1.0" preserveAspectRatio="xMidYMid meet" viewBox="150 1291 3637 1364.81">
<g transform="translate(0.000000,3937.000000) scale(0.100000,-0.100000)" fill="white" stroke="alice" stroke-width="150">
<path d="M1520 19995 c0 -4303 -3 -6465 -10 -6465 -5 0 -10 -18 -10 -40 l0 -40 6485 0 6485 0 0 40 0 40 -6435 0 -6435 0 -2 6405 c-2 3523 -1 6410 0 6415 3 7 6041 10 18088 10 l18084 0 0 -6415 0 -6415 -6405 0 -6405 0 0 -40 0 -40 6455 0 6455 0 0 40 c0 22 -4 40 -10 40 -7 0 -10 2160 -10 6459 l0 6460 -21 6 c-11 4 -33 2 -47 -4 -30 -12 -36171 -10 -36229 2 l-33 7 0 -6465z"/>
<path d="M6690 20070 l0 -3150 520 0 520 0 0 1918 0 1917 47 -50 c71 -76 92 -100 624 -690 272 -302 643 -714 824 -915 l328 -365 51 -3 51 -3 355 392 c195 216 360 397 365 403 6 6 93 103 195 216 102 113 274 304 384 425 110 121 274 302 364 402 91 101 169 180 173 177 5 -3 8 -842 7 -1915 l-3 -1909 518 0 517 0 0 3150 0 3150 -44 0 c-43 0 -44 0 -177 -147 -73 -82 -136 -150 -139 -153 -3 -3 -86 -95 -185 -205 -99 -110 -247 -274 -330 -365 -82 -91 -188 -208 -235 -260 -47 -52 -110 -122 -140 -155 -30 -33 -94 -103 -141 -155 -47 -52 -132 -147 -190 -210 -150 -166 -160 -177 -334 -370 -87 -96 -195 -215 -239 -265 -45 -49 -106 -117 -137 -150 -30 -33 -100 -109 -154 -170 -335 -373 -466 -515 -475 -515 -5 0 -66 64 -137 142 -303 336 -548 607 -843 934 -173 192 -340 376 -371 409 -31 33 -96 105 -145 160 -49 55 -109 123 -135 150 -61 67 -392 433 -719 795 -257 286 -346 383 -437 483 -40 42 -49 47 -89 47 l-44 0 0 -3150z"/>
<path d="M27174 23068 c-2 -3 46 -91 107 -195 62 -103 128 -217 149 -253 20 -36 57 -99 82 -140 25 -41 91 -154 148 -250 56 -96 115 -195 130 -220 15 -25 53 -90 85 -145 32 -55 93 -158 135 -230 42 -71 109 -184 147 -250 160 -272 305 -518 380 -645 44 -74 90 -153 103 -175 12 -22 97 -166 188 -320 91 -154 180 -305 197 -335 45 -78 220 -375 297 -505 36 -60 73 -125 82 -142 15 -30 16 -130 14 -1188 l-3 -1155 528 0 527 0 0 1163 0 1162 61 105 c34 58 76 130 94 160 17 30 152 260 300 510 148 250 283 480 300 510 18 30 63 107 100 170 37 63 82 140 100 170 17 30 107 183 200 340 215 365 360 610 400 680 18 30 62 106 98 168 129 217 194 327 217 367 85 145 257 437 313 530 36 61 64 112 62 115 -2 3 -264 4 -583 2 l-581 -2 -52 -98 c-28 -53 -73 -135 -99 -182 -26 -47 -106 -194 -179 -328 -132 -245 -371 -685 -421 -777 -48 -88 -162 -298 -198 -365 -19 -36 -56 -103 -82 -150 -26 -47 -125 -229 -221 -405 -291 -539 -347 -639 -356 -642 -4 -2 -38 52 -74 119 -37 68 -120 222 -186 343 -66 121 -254 468 -418 770 -164 303 -321 593 -350 645 -29 52 -115 210 -191 350 -76 140 -154 285 -173 321 -20 36 -76 140 -126 232 l-90 167 -578 2 c-319 2 -581 0 -583 -4z"/>
<path d="M13700 19995 l0 -3075 2050 0 2051 0 -3 453 -3 452 -1523 3 -1522 2 2 793 3 792 1290 3 c710 1 1296 2 1303 2 9 0 12 98 12 455 l0 455 -1305 0 -1305 0 0 915 0 915 1480 0 1480 0 0 455 0 455 -2005 0 -2005 0 0 -3075z"/>
<path d="M18770 19995 l0 -3075 2085 0 2085 0 0 455 0 455 -1555 0 -1555 0 0 2620 0 2620 -530 0 -530 0 0 -3075z"/>
<path d="M23700 19995 l0 -3075 2085 0 2085 0 0 455 0 455 -1555 0 -1555 0 0 2620 0 2620 -530 0 -530 0 0 -3075z"/>
<path d="M16259 13966 c-280 -78 -420 -415 -287 -694 36 -76 133 -179 198 -210 116 -55 252 -65 367 -26 46 16 176 95 189 115 5 9 -42 89 -54 89 -2 0 -20 -14 -39 -30 -137 -120 -352 -123 -476 -7 -87 83 -122 181 -115 322 8 153 71 256 192 315 127 63 271 45 393 -46 l32 -25 28 42 27 41 -34 29 c-79 67 -177 99 -294 98 -45 0 -102 -7 -127 -13z"/>
<path d="M17129 13957 c-161 -55 -280 -197 -310 -371 -47 -273 126 -527 385 -568 328 -51 595 232 537 568 -23 131 -84 230 -194 310 -114 84 -280 108 -418 61z m296 -112 c92 -46 152 -115 185 -215 31 -91 25 -220 -12 -302 -33 -72 -93 -136 -160 -174 -49 -27 -61 -29 -158 -29 -95 0 -110 3 -156 27 -80 42 -150 125 -175 210 -30 98 -24 228 15 309 46 98 136 174 233 199 61 15 171 3 228 -25z"/>
<path d="M21539 13966 c-280 -78 -420 -415 -287 -694 36 -76 133 -179 198 -210 116 -55 252 -65 367 -26 46 16 176 95 189 115 5 9 -42 89 -54 89 -2 0 -20 -14 -39 -30 -137 -120 -352 -123 -476 -7 -87 83 -122 181 -115 322 8 153 71 256 192 315 127 63 271 45 393 -46 l32 -25 28 42 27 41 -34 29 c-79 67 -177 99 -294 98 -45 0 -102 -7 -127 -13z"/>
<path d="M22440 13966 c-116 -33 -238 -137 -290 -249 -101 -214 -39 -479 142 -613 256 -188 616 -76 719 224 42 122 34 275 -22 392 -55 116 -184 220 -310 249 -59 14 -184 12 -239 -3z m276 -121 c71 -35 131 -97 168 -175 29 -60 31 -73 31 -175 0 -98 -3 -116 -26 -165 -44 -94 -126 -172 -212 -199 -54 -18 -168 -16 -229 5 -41 13 -69 33 -120 85 -59 59 -70 77 -89 140 -31 101 -24 229 16 313 31 65 94 134 146 162 98 50 223 54 315 9z"/>
<path d="M17910 13495 l0 -465 55 0 55 0 2 198 3 197 198 3 197 2 0 50 0 50 -200 0 -200 0 0 165 0 165 233 0 c129 0 236 2 238 4 2 3 3 25 1 50 l-4 46 -289 0 -289 0 0 -465z"/>
<path d="M18645 13495 l0 -465 57 0 58 0 2 198 3 197 198 3 197 2 0 50 0 50 -200 0 -200 0 0 165 0 165 234 0 c260 0 246 -4 238 68 l-4 32 -292 0 -291 0 0 -465z"/>
<path d="M19390 13495 l0 -465 300 0 300 0 0 50 0 50 -245 0 -246 0 3 148 3 147 208 3 207 2 0 50 0 50 -210 0 -210 0 0 165 0 165 235 0 235 0 0 50 0 50 -290 0 -290 0 0 -465z"/>
<path d="M20150 13495 l0 -465 300 0 300 0 0 50 0 50 -245 0 -246 0 3 148 3 147 208 3 207 2 0 50 0 50 -210 0 -210 0 0 165 0 165 233 0 c129 0 236 2 238 4 2 3 3 25 1 50 l-4 46 -289 0 -289 0 0 -465z"/>
<path d="M23261 13123 c-15 -10 -21 -23 -19 -40 4 -33 28 -48 62 -39 24 6 27 11 24 43 -4 44 -34 60 -67 36z m49 -38 c0 -18 -5 -25 -19 -25 -22 0 -40 20 -19 21 10 0 10 2 1 6 -22 8 -14 23 12 23 20 0 25 -5 25 -25z"/>
</g>
</svg>