<?xml version="1.0" encoding="utf-8"?>
<!-- Generator: Adobe Illustrator 22.1.0, SVG Export Plug-In . SVG Version: 6.00 Build 0)  -->
<svg version="1.1" id="Layer_1" xmlns="http://www.w3.org/2000/svg" xmlns:xlink="http://www.w3.org/1999/xlink" x="0px" y="0px"
	 viewBox="0 0 572 246.7" style="enable-background:new 0 0 572 246.7;" xml:space="preserve">
<style type="text/css">
	.st0{fill:#ED1C24;}
</style>
<g>
	<path class="st0" d="M123.9,13.7L72.7,55.9l0.5,27.5l36,0.2l25.5-22.5h13.8l49.8,60l-1.5,9l-11-0.5l-36.5-43.5l-10.5,8.8l35.8,44
		v10.8l-10.8-1l-37.8-44.3l-10.5,9.2l36.5,43.8v10.8h-10.2l-14.8-8.5l-3-14.5l-15-7.2l-4.2-15.3l-15-7.8l-5.8-16.8H55.4l-16.5,13.2
		l-24-27.2v144.5H559v-215H123.9z M41.5,137.8l-2.3-8.8l22.5-18.3h12.2l2,8.3l-26,22.2L41.5,137.8z M60.2,160l-1.8-8.8L84,129.5
		l7.7,2.8l2.2,8.8l-26.7,22.2L60.2,160z M78.7,182.3l-2.6-8.3l27.1-22.2l7.5,3.5l2.2,8.2l-26.7,22.3L78.7,182.3z M105,207.5
		l-8.2-3.7l-1.5-8l25.5-21.7l8.8,3.3l1.7,8.3L105,207.5z M546.2,214.7H211.7v-99.5l-57-68.5h-23.3l-27.2,22l-17-0.5v-5.2l40-33.5
		h419V214.7z"/>
	<path class="st0" d="M266.6,112.2c0,1.9-1,2.8-3.1,2.8h-12c-2.1,0-3.1-0.9-3.1-2.8V93.3l-16.8-33c-0.8-1.6-0.2-3.5,2.3-3.5h12.6
		c2.4,0,3.5,1.1,4,2.5l4.8,12.7l2,7.4h0.4l2-7.4l4.8-12.7c0.5-1.5,1.6-2.5,4-2.5h12.6c2.5,0,3.1,1.9,2.3,3.5l-16.8,33V112.2z"/>
	<path class="st0" d="M309.7,92.3v8.4h18.8c2.1,0,3.1,0.9,3.1,2.8v8.7c0,1.9-1,2.8-3.1,2.8h-33.8c-2.1,0-3.1-0.9-3.1-2.8V59.6
		c0-1.9,1-2.8,3.1-2.8H328c2.1,0,3.1,0.9,3.1,2.8v8.7c0,1.9-1,2.8-3.1,2.8h-18.4v7.5h17.2c2,0,3.1,1,3.1,2.8v8.1
		c0,1.8-1.1,2.8-3.1,2.8H309.7z"/>
	<path class="st0" d="M362.6,56.8c17,0,25.1,5,25.1,21c0,9.2-3.8,14.6-10.3,17.4l9.6,16.4c1.1,1.9,0.5,3.5-1.9,3.5h-12.2
		c-2.3,0-3.4-0.7-4.3-2.3l-7.9-14.9h-2.7v14.4c0,1.9-1,2.8-3.1,2.8h-12c-2.1,0-3.1-0.9-3.1-2.8V59.6c0-1.9,1-2.8,3.1-2.8H362.6z
		 M362.4,84.4c5.3,0,6.8-1.9,6.8-6.7c0-5.2-1.5-6.7-6.8-6.7h-4.5v13.4H362.4z"/>
	<path class="st0" d="M414.3,100.1h15.7c2.1,0,3.1,0.9,3.1,2.8v9.3c0,1.9-1,2.8-3.1,2.8h-30.9c-2.1,0-3.1-0.9-3.1-2.8V59.6
		c0-1.9,1-2.8,3.1-2.8h12.1c2.1,0,3.1,0.9,3.1,2.8V100.1z"/>
	<path class="st0" d="M458.6,112.5c0,1.7-0.9,2.5-2.8,2.5h-11.5c-1.9,0-2.8-0.8-2.8-2.5V59.4c0-1.7,0.9-2.5,2.8-2.5h11.5
		c1.9,0,2.8,0.8,2.8,2.5V112.5z"/>
	<path class="st0" d="M458.8,50.5c0,1.7-0.9,2.5-2.8,2.5h-11.5c-1.9,0-2.8-0.8-2.8-2.5v-6c0-1.7,0.9-2.5,2.8-2.5h11.5
		c1.9,0,2.8,0.8,2.8,2.5V50.5z"/>
	<path class="st0" d="M458.6,196.7c0,1.7-0.9,2.5-2.8,2.5h-11.5c-1.9,0-2.8-0.8-2.8-2.5v-53.1c0-1.7,0.9-2.5,2.8-2.5h11.5
		c1.9,0,2.8,0.8,2.8,2.5V196.7z"/>
	<path class="st0" d="M458.8,134.7c0,1.7-0.9,2.5-2.8,2.5h-11.5c-1.9,0-2.8-0.8-2.8-2.5v-6c0-1.7,0.9-2.5,2.8-2.5h11.5
		c1.9,0,2.8,0.8,2.8,2.5V134.7z"/>
	<path class="st0" d="M231.3,179.4v-37c0-1.9,1-2.8,3.1-2.8h12.1c2.1,0,3.1,0.9,3.1,2.8v35c0,5.2,1.4,7.3,5.5,7.3
		c4,0,5.4-2.1,5.4-7.3v-35c0-1.9,1-2.8,3.1-2.8h12.1c2.1,0,3.1,0.9,3.1,2.8v37c0,14.3-7.8,20.4-23.7,20.4
		C239.1,199.8,231.3,193.8,231.3,179.4z M252.7,133.6c0,1.7-0.9,2.5-2.7,2.5h-9.1c-1.9,0-2.8-0.8-2.8-2.5v-4.9
		c0-1.7,0.9-2.5,2.8-2.5h9.1c1.8,0,2.7,0.8,2.7,2.5V133.6z M272,133.6c0,1.7-0.9,2.5-2.8,2.5h-9.1c-1.8,0-2.7-0.8-2.7-2.5v-4.9
		c0-1.7,0.9-2.5,2.7-2.5h9.1c1.9,0,2.8,0.8,2.8,2.5V133.6z"/>
	<path class="st0" d="M310.5,139.6c17.1,0,25.2,5.1,25.2,21.4c0,9.4-3.8,14.9-10.3,17.8l9.6,16.7c1.1,1.9,0.5,3.5-1.9,3.5h-12.2
		c-2.3,0-3.4-0.7-4.3-2.3l-7.9-15.2h-2.7v14.7c0,1.9-1,2.9-3.1,2.9h-12c-2.1,0-3.1-0.9-3.1-2.9v-53.6c0-1.9,1-2.8,3.1-2.8H310.5z
		 M310.3,167.8c5.3,0,6.8-1.9,6.8-6.8c0-5.3-1.6-6.9-6.8-6.9h-4.5v13.7H310.3z"/>
	<path class="st0" d="M361.6,175.8v8.6h18.9c2.1,0,3.1,0.9,3.1,2.9v8.9c0,1.9-1,2.9-3.1,2.9h-33.8c-2.1,0-3.1-0.9-3.1-2.9v-53.6
		c0-1.9,1-2.8,3.1-2.8H380c2.1,0,3.1,0.9,3.1,2.8v8.9c0,1.9-1,2.9-3.1,2.9h-18.4v7.6h17.2c2,0,3.1,1,3.1,2.9v8.3
		c0,1.8-1.1,2.9-3.1,2.9H361.6z"/>
	<path class="st0" d="M390.7,142.5c0-1.9,1-2.8,3.1-2.8H430c2.1,0,3.1,0.9,3.1,2.8v9.4c0,1.9-1,2.8-3.1,2.8h-8.9v41.4
		c0,1.9-1,2.9-3.1,2.9h-12.1c-2.1,0-3.1-0.9-3.1-2.9v-41.4h-8.9c-2.1,0-3.1-0.9-3.1-2.8V142.5z"/>
	<path class="st0" d="M495.4,184.5l-8.8-15.6v27.2c0,1.9-1,2.9-3.1,2.9H472c-2.1,0-3.1-0.9-3.1-2.9v-53.6c0-1.9,1-2.8,3.1-2.8h10.9
		c2,0,3.1,0.6,3.8,1.9l11.5,20.7l11.4-20.7c0.7-1.3,1.8-1.9,3.8-1.9h10.9c2.1,0,3.1,0.9,3.1,2.8v53.6c0,1.9-1,2.9-3.1,2.9h-11.6
		c-2.1,0-3.1-0.9-3.1-2.9v-27.2l-8.8,15.6c-0.6,1.2-1.3,1.8-2.7,1.8C496.7,186.4,496.1,185.7,495.4,184.5z"/>
</g>
</svg>
